<svg width="34" height="34" viewBox="0 0 34 34" fill="none" xmlns="http://www.w3.org/2000/svg">
<circle cx="17" cy="17" r="15" fill="#FFCEDD" stroke="#FF0B55" stroke-width="3"/>
<path d="M16.9139 23.8305C15.9987 23.8305 15.1393 23.6213 14.3357 23.2027C13.5322 22.7842 12.8737 22.2011 12.3603 21.4533L9.146 16.7323L9.46408 16.4142C9.68729 16.1799 9.96352 16.0459 10.2928 16.0125C10.622 15.979 10.9205 16.0571 11.1884 16.2468L13.0299 17.5191V11.1073C13.0299 10.9176 13.0941 10.7585 13.2224 10.6302C13.3508 10.5018 13.5098 10.4377 13.6996 10.4377C13.8893 10.4377 14.0483 10.5018 14.1767 10.6302C14.305 10.7585 14.3692 10.9176 14.3692 11.1073V20.0973L11.8915 18.3729L13.4819 20.6832C13.8726 21.2524 14.3692 21.696 14.9719 22.0141C15.5746 22.3322 16.2219 22.4912 16.9139 22.4912C18.0634 22.4912 19.0428 22.0867 19.8519 21.2775C20.6611 20.4684 21.0656 19.489 21.0656 18.3395V11.777C21.0656 11.5872 21.1298 11.4282 21.2582 11.2998C21.3865 11.1715 21.5456 11.1073 21.7353 11.1073C21.925 11.1073 22.0841 11.1715 22.2124 11.2998C22.3408 11.4282 22.4049 11.5872 22.4049 11.777V18.3395C22.4049 19.8685 21.872 21.1659 20.8062 22.2318C19.7403 23.2976 18.4429 23.8305 16.9139 23.8305ZM15.7085 16.4645V9.76803C15.7085 9.5783 15.7727 9.41926 15.901 9.29091C16.0294 9.16256 16.1884 9.09839 16.3781 9.09839C16.5679 9.09839 16.7269 9.16256 16.8553 9.29091C16.9836 9.41926 17.0478 9.5783 17.0478 9.76803V16.4645H15.7085ZM18.3871 16.4645V10.4377C18.3871 10.2479 18.4512 10.0889 18.5796 9.96055C18.7079 9.83221 18.867 9.76803 19.0567 9.76803C19.2464 9.76803 19.4055 9.83221 19.5338 9.96055C19.6622 10.0889 19.7264 10.2479 19.7264 10.4377V16.4645H18.3871Z" fill="url(#paint0_linear_292_3088)"/>
<defs>
<linearGradient id="paint0_linear_292_3088" x1="15.7755" y1="9.09839" x2="15.7755" y2="23.8305" gradientUnits="userSpaceOnUse">
<stop stop-color="#F7EBE8"/>
<stop offset="1" stop-color="#FF0B55"/>
</linearGradient>
</defs>
</svg>
