<svg width="41" height="40" viewBox="0 0 41 40" fill="none" xmlns="http://www.w3.org/2000/svg">
<rect x="0.5" width="40" height="40" rx="20" fill="#FF0B55"/>
<path fill-rule="evenodd" clip-rule="evenodd" d="M26.5002 16C26.5002 19.3137 23.814 22 20.5002 22C17.1865 22 14.5002 19.3137 14.5002 16C14.5002 12.6863 17.1865 10 20.5002 10C23.814 10 26.5002 12.6863 26.5002 16ZM24.5002 16C24.5002 18.2091 22.7094 20 20.5002 20C18.2911 20 16.5002 18.2091 16.5002 16C16.5002 13.7909 18.2911 12 20.5002 12C22.7094 12 24.5002 13.7909 24.5002 16Z" fill="white"/>
<path d="M20.5002 25C14.0259 25 8.50952 28.8284 6.4082 34.192C6.9201 34.7004 7.45934 35.1812 8.02353 35.6321C9.58827 30.7077 14.497 27 20.5002 27C26.5035 27 31.4122 30.7077 32.977 35.6321C33.5412 35.1812 34.0804 34.7004 34.5923 34.1921C32.491 28.8284 26.9746 25 20.5002 25Z" fill="white"/>
</svg>
