<svg width="138" height="123" viewBox="0 0 138 123" fill="none" xmlns="http://www.w3.org/2000/svg">
<path d="M138 61.5C138 95.4655 107.108 123 69 123C30.8924 123 0 95.4655 0 61.5C0 27.5345 30.8924 0 69 0C107.108 0 138 27.5345 138 61.5Z" fill="#F5F5F5"/>
<g opacity="0.2">
<path d="M77.4695 90.6662C77.4695 92.6818 76.6688 94.6149 75.2435 96.0402C73.8183 97.4655 71.8852 98.2662 69.8695 98.2662C67.8539 98.2662 65.9208 97.4655 64.4955 96.0402C63.0702 94.6149 62.2695 92.6818 62.2695 90.6662C62.2695 88.6505 63.0702 86.7174 64.4955 85.2921C65.9208 83.8669 67.8539 83.0662 69.8695 83.0662C71.8852 83.0662 73.8183 83.8669 75.2435 85.2921C76.6688 86.7174 77.4695 88.6505 77.4695 90.6662Z" fill="#FF0B55"/>
<path fill-rule="evenodd" clip-rule="evenodd" d="M69.7594 47.1638C67.2134 47.1638 65.0284 47.9238 63.4894 49.0106C62.0074 50.0594 61.274 51.2792 61.0612 52.3318C60.7468 53.7388 59.8934 54.9665 58.6842 55.7516C57.4749 56.5366 56.0062 56.8164 54.593 56.531C53.1798 56.2456 51.9348 55.4177 51.1251 54.2248C50.3153 53.032 50.0053 51.5693 50.2616 50.1506C51.1242 45.8718 53.7766 42.3796 57.1358 40.0046C60.6318 37.5346 65.0626 36.1438 69.7594 36.1438C79.476 36.1438 89.5498 42.6418 89.5498 53.0766C89.5498 59.1186 85.9588 64.0054 81.3076 66.8554C80.6903 67.2332 80.0047 67.4856 79.2898 67.5984C78.5749 67.7112 77.8448 67.6821 77.1412 67.5127C76.4376 67.3433 75.7743 67.037 75.189 66.6113C74.6038 66.1855 74.1082 65.6487 73.7304 65.0314C73.3526 64.4141 73.1002 63.7285 72.9874 63.0136C72.8746 62.2987 72.9037 61.5686 73.0731 60.865C73.2425 60.1614 73.5488 59.4981 73.9745 58.9128C74.4003 58.3276 74.9371 57.832 75.5544 57.4542C77.7204 56.128 78.5298 54.437 78.5298 53.0766C78.5298 50.8954 75.8128 47.1638 69.7594 47.1638Z" fill="#FF0B55"/>
<path fill-rule="evenodd" clip-rule="evenodd" d="M69.7595 61.8508C72.7995 61.8508 75.2695 64.3132 75.2695 67.3608V73.0684C75.2695 74.5298 74.689 75.9313 73.6557 76.9646C72.6223 77.9979 71.2209 78.5784 69.7595 78.5784C68.2982 78.5784 66.8967 77.9979 65.8634 76.9646C64.83 75.9313 64.2495 74.5298 64.2495 73.0684V67.3608C64.2495 64.3208 66.7157 61.8508 69.7595 61.8508Z" fill="#FF0B55"/>
<path fill-rule="evenodd" clip-rule="evenodd" d="M83.1698 59.3275C83.542 59.9487 83.7881 60.6371 83.8941 61.3535C84 62.0698 83.9638 62.8 83.7873 63.5024C83.6108 64.2047 83.2977 64.8653 82.8657 65.4465C82.4337 66.0277 81.8914 66.5181 81.2698 66.8895L72.5906 72.0841C71.3369 72.835 69.8362 73.057 68.4188 72.7014C67.0014 72.3458 65.7832 71.4417 65.0324 70.1879C64.2816 68.9342 64.0595 67.4335 64.4152 66.0161C64.7708 64.5987 65.6749 63.3806 66.9286 62.6297L75.6116 57.4313C76.2326 57.0597 76.9207 56.8141 77.6367 56.7084C78.3527 56.6028 79.0824 56.6392 79.7843 56.8157C80.4862 56.9921 81.1464 57.3051 81.7273 57.7367C82.3082 58.1684 82.7984 58.7102 83.1698 59.3313" fill="#FF0B55"/>
</g>
<path d="M70.8613 87.0068C70.8613 88.2666 70.3609 89.4748 69.4701 90.3656C68.5793 91.2564 67.3711 91.7568 66.1113 91.7568C64.8515 91.7568 63.6434 91.2564 62.7526 90.3656C61.8618 89.4748 61.3613 88.2666 61.3613 87.0068C61.3613 85.7471 61.8618 84.5389 62.7526 83.6481C63.6434 82.7573 64.8515 82.2568 66.1113 82.2568C67.3711 82.2568 68.5793 82.7573 69.4701 83.6481C70.3609 84.5389 70.8613 85.7471 70.8613 87.0068Z" fill="#FF0B55"/>
<path fill-rule="evenodd" clip-rule="evenodd" d="M65.9592 40.7038C62.8926 40.7038 60.168 41.6158 58.1578 43.037C56.2198 44.405 55.0228 46.1758 54.6542 48.0074C54.5866 48.3804 54.4452 48.7361 54.2384 49.0537C54.0316 49.3714 53.7635 49.6446 53.4498 49.8573C53.1361 50.0701 52.7831 50.2182 52.4115 50.2928C52.0399 50.3675 51.6571 50.3673 51.2856 50.2922C50.9141 50.2172 50.5612 50.0688 50.2478 49.8557C49.9343 49.6426 49.6665 49.3691 49.46 49.0512C49.2535 48.7334 49.1125 48.3775 49.0452 48.0045C48.978 47.6315 48.9858 47.2488 49.0682 46.8788C49.775 43.3752 51.9638 40.434 54.867 38.382C57.8918 36.2464 61.783 35 65.9592 35C74.7942 35 83.0896 40.833 83.0896 49.2766C83.0896 54.1862 80.1712 58.3054 76.1204 60.7868C75.4754 61.1819 74.6999 61.3045 73.9645 61.1278C73.229 60.9511 72.5939 60.4894 72.1988 59.8444C71.8038 59.1994 71.6811 58.4239 71.8578 57.6884C72.0346 56.953 72.4962 56.3179 73.1412 55.9228C75.9114 54.228 77.3896 51.7694 77.3896 49.2766C77.3896 45.1004 72.898 40.7038 65.9592 40.7038ZM65.9592 60.7108C66.7151 60.7108 67.44 61.0111 67.9745 61.5455C68.509 62.08 68.8092 62.8049 68.8092 63.5608V69.2684C68.8092 70.0243 68.509 70.7492 67.9745 71.2837C67.44 71.8181 66.7151 72.1184 65.9592 72.1184C65.2034 72.1184 64.4785 71.8181 63.944 71.2837C63.4095 70.7492 63.1092 70.0243 63.1092 69.2684V63.5608C63.1092 62.8049 63.4095 62.08 63.944 61.5455C64.4785 61.0111 65.2034 60.7108 65.9592 60.7108Z" fill="#FF0B55"/>
<path fill-rule="evenodd" clip-rule="evenodd" d="M77.0854 56.8956C77.2779 57.2167 77.4052 57.5726 77.46 57.9429C77.5149 58.3132 77.4963 58.6907 77.4053 59.0538C77.3142 59.4169 77.1525 59.7585 76.9294 60.0592C76.7063 60.3598 76.4262 60.6135 76.105 60.8058L67.422 66.0042C67.1007 66.2044 66.7427 66.3386 66.3689 66.3989C65.9952 66.4592 65.6132 66.4444 65.2452 66.3555C64.8772 66.2665 64.5306 66.1051 64.2257 65.8807C63.9208 65.6563 63.6636 65.3734 63.4692 65.0485C63.2749 64.7236 63.1472 64.3633 63.0936 63.9885C63.04 63.6137 63.0617 63.232 63.1573 62.8657C63.2529 62.4994 63.4205 62.1558 63.6503 61.8549C63.8802 61.5541 64.1677 61.3021 64.496 61.1136L73.179 55.9152C73.8272 55.5278 74.6026 55.4134 75.3351 55.5972C76.0675 55.781 76.697 56.248 77.0854 56.8956Z" fill="#FF0B55"/>
</svg>
