<svg width="24" height="24" viewBox="0 0 24 24" fill="none" xmlns="http://www.w3.org/2000/svg">
<path fill-rule="evenodd" clip-rule="evenodd" d="M9.84805 3.34048C10.5435 2.74792 11.4208 2.41127 12.334 2.38653C13.2473 2.36179 14.1416 2.65044 14.868 3.20448L15.038 3.34048L15.414 3.66048C15.6877 3.89411 16.0194 4.04958 16.374 4.11048L16.552 4.13248L17.045 4.17248C17.9583 4.24535 18.8189 4.62952 19.4829 5.26077C20.1469 5.89201 20.5741 6.73206 20.693 7.64048L20.714 7.84048L20.754 8.33448C20.7824 8.6928 20.9067 9.03686 21.114 9.33048L21.224 9.47248L21.546 9.84848C22.1386 10.5439 22.4753 11.4212 22.5 12.3345C22.5247 13.2478 22.2361 14.142 21.682 14.8685L21.546 15.0385L21.225 15.4145C20.9914 15.6882 20.836 16.0198 20.775 16.3745L20.753 16.5525L20.714 17.0455C20.6412 17.9588 20.257 18.8193 19.6258 19.4833C18.9945 20.1473 18.1545 20.5745 17.246 20.6935L17.045 20.7145L16.552 20.7545C16.1937 20.7828 15.8497 20.9072 15.556 21.1145L15.414 21.2255L15.037 21.5455C14.3418 22.1382 13.4645 22.475 12.5512 22.4999C11.6379 22.5249 10.7436 22.2364 10.017 21.6825L9.84805 21.5465L9.47205 21.2255C9.19836 20.9918 8.86671 20.8364 8.51205 20.7755L8.33405 20.7545L7.84105 20.7145C6.92778 20.6416 6.0672 20.2574 5.40319 19.6262C4.73919 18.995 4.312 18.1549 4.19305 17.2465L4.17205 17.0465L4.13205 16.5525C4.10373 16.1942 3.97937 15.8501 3.77205 15.5565L3.66105 15.4145L3.34005 15.0375C2.74749 14.3421 2.41084 13.4648 2.3861 12.5515C2.36136 11.6382 2.65001 10.744 3.20405 10.0175L3.34005 9.84848L3.66005 9.47248C3.89368 9.19879 4.04914 8.86714 4.11005 8.51248L4.13205 8.33448L4.17205 7.84148C4.24492 6.92821 4.62909 6.06763 5.26033 5.40363C5.89158 4.73962 6.73163 4.31243 7.64005 4.19348L7.84005 4.17248L8.33405 4.13248C8.69237 4.10416 9.03643 3.9798 9.33005 3.77248L9.47205 3.66148L9.84805 3.34048Z" fill="black"/>
</svg>
