<svg width="24" height="24" viewBox="0 0 24 24" fill="none" xmlns="http://www.w3.org/2000/svg">
<rect width="24" height="24" stroke="#E0E0E0"/>
<g clip-path="url(#clip0_1177_6250)">
<path fill-rule="evenodd" clip-rule="evenodd" d="M14.594 2.89697C13.8703 2.28018 12.9505 1.94141 11.9995 1.94141C11.0486 1.94141 10.1288 2.28018 9.40503 2.89697L9.02903 3.21697C8.70882 3.49013 8.31058 3.65531 7.89103 3.68897L7.39803 3.72897C6.45 3.80442 5.55987 4.21517 4.8873 4.88756C4.21473 5.55994 3.80373 6.44996 3.72803 7.39797L3.68903 7.89097C3.65565 8.31041 3.49083 8.70863 3.21803 9.02897L2.89703 9.40497C2.27998 10.1288 1.94104 11.0488 1.94104 12C1.94104 12.9511 2.27998 13.8711 2.89703 14.595L3.21703 14.971C3.49019 15.2912 3.65537 15.6894 3.68903 16.109L3.72903 16.602C3.80448 17.55 4.21523 18.4401 4.88762 19.1127C5.56 19.7853 6.45002 20.1963 7.39803 20.272L7.89103 20.311C8.31047 20.3444 8.70869 20.5092 9.02903 20.782L9.40503 21.102C10.1289 21.719 11.0489 22.058 12 22.058C12.9512 22.058 13.8712 21.719 14.595 21.102L14.971 20.782C15.2914 20.5092 15.6896 20.3444 16.109 20.311L16.602 20.271C17.5501 20.1955 18.4402 19.7848 19.1128 19.1124C19.7853 18.44 20.1963 17.55 20.272 16.602L20.31 16.109C20.3437 15.6894 20.5089 15.2912 20.782 14.971L21.102 14.594C21.7188 13.8702 22.0576 12.9504 22.0576 11.9995C22.0576 11.0485 21.7188 10.1287 21.102 9.40497L20.782 9.02897C20.5089 8.70876 20.3437 8.31052 20.31 7.89097L20.271 7.39797C20.1956 6.44994 19.7848 5.55981 19.1125 4.88724C18.4401 4.21467 17.55 3.80367 16.602 3.72797L16.109 3.68897C15.6896 3.65559 15.2914 3.49077 14.971 3.21797L14.594 2.89697ZM10.703 4.41997C11.0649 4.11171 11.5247 3.9424 12 3.9424C12.4754 3.9424 12.9352 4.11171 13.297 4.41997L13.674 4.74097C14.3146 5.28693 15.1111 5.61692 15.95 5.68397L16.443 5.72397C16.9168 5.76191 17.3616 5.96731 17.6976 6.30338C18.0337 6.63945 18.2391 7.08422 18.277 7.55797L18.317 8.05097C18.3841 8.88996 18.7141 9.68641 19.26 10.327L19.58 10.704C19.8883 11.0658 20.0576 11.5256 20.0576 12.001C20.0576 12.4763 19.8883 12.9361 19.58 13.298L19.26 13.675C18.7141 14.3155 18.3841 15.112 18.317 15.951L18.277 16.444C18.2391 16.9177 18.0337 17.3625 17.6976 17.6986C17.3616 18.0346 16.9168 18.24 16.443 18.278L15.95 18.318C15.1111 18.385 14.3146 18.715 13.674 19.261L13.297 19.581C12.9352 19.8892 12.4754 20.0585 12 20.0585C11.5247 20.0585 11.0649 19.8892 10.703 19.581L10.326 19.261C9.68547 18.715 8.88902 18.385 8.05003 18.318L7.55703 18.278C7.0831 18.2403 6.63809 18.035 6.30182 17.6989C5.96554 17.3628 5.76 16.9179 5.72203 16.444L5.68203 15.951C5.61526 15.1121 5.28563 14.3157 4.74003 13.675L4.42003 13.298C4.11177 12.9361 3.94246 12.4763 3.94246 12.001C3.94246 11.5256 4.11177 11.0658 4.42003 10.704L4.74003 10.327C5.28599 9.68641 5.61598 8.88996 5.68303 8.05097L5.72303 7.55797C5.76074 7.08404 5.96604 6.63903 6.30214 6.30276C6.63823 5.96649 7.08312 5.76094 7.55703 5.72297L8.05003 5.68397C8.88902 5.61692 9.68547 5.28693 10.326 4.74097L10.703 4.41997Z" fill="black"/>
</g>
<defs>
<clipPath id="clip0_1177_6250">
<rect width="24" height="24" rx="2" fill="white"/>
</clipPath>
</defs>
</svg>
