<svg width="21" height="21" viewBox="0 0 21 21" fill="none" xmlns="http://www.w3.org/2000/svg">
<path fill-rule="evenodd" clip-rule="evenodd" d="M7.84805 1.34048C8.54345 0.74792 9.42075 0.411274 10.334 0.386531C11.2473 0.361789 12.1416 0.65044 12.868 1.20448L13.038 1.34048L13.414 1.66048C13.6877 1.89411 14.0194 2.04958 14.374 2.11048L14.552 2.13248L15.045 2.17248C15.9583 2.24535 16.8189 2.62952 17.4829 3.26077C18.1469 3.89201 18.5741 4.73206 18.693 5.64048L18.714 5.84048L18.754 6.33448C18.7824 6.6928 18.9067 7.03686 19.114 7.33048L19.224 7.47248L19.546 7.84848C20.1386 8.54389 20.4753 9.42119 20.5 10.3345C20.5247 11.2478 20.2361 12.142 19.682 12.8685L19.546 13.0385L19.225 13.4145C18.9914 13.6882 18.836 14.0198 18.775 14.3745L18.753 14.5525L18.714 15.0455C18.6412 15.9588 18.257 16.8193 17.6258 17.4833C16.9945 18.1473 16.1545 18.5745 15.246 18.6935L15.045 18.7145L14.552 18.7545C14.1937 18.7828 13.8497 18.9072 13.556 19.1145L13.414 19.2255L13.037 19.5455C12.3418 20.1382 11.4645 20.475 10.5512 20.4999C9.63793 20.5249 8.74363 20.2364 8.01705 19.6825L7.84805 19.5465L7.47205 19.2255C7.19836 18.9918 6.86671 18.8364 6.51205 18.7755L6.33405 18.7545L5.84105 18.7145C4.92778 18.6416 4.0672 18.2574 3.40319 17.6262C2.73919 16.995 2.312 16.1549 2.19305 15.2465L2.17205 15.0465L2.13205 14.5525C2.10373 14.1942 1.97937 13.8501 1.77205 13.5565L1.66105 13.4145L1.34005 13.0375C0.747487 12.3421 0.410841 11.4648 0.386098 10.5515C0.361356 9.63819 0.650008 8.74395 1.20405 8.01748L1.34005 7.84848L1.66005 7.47248C1.89368 7.19879 2.04914 6.86714 2.11005 6.51248L2.13205 6.33448L2.17205 5.84148C2.24492 4.92821 2.62909 4.06763 3.26033 3.40363C3.89158 2.73962 4.73163 2.31243 5.64005 2.19348L5.84005 2.17248L6.33405 2.13248C6.69237 2.10416 7.03643 1.9798 7.33005 1.77248L7.47205 1.66148L7.84805 1.34048Z" fill="black"/>
</svg>
