<svg width="22" height="22" viewBox="0 0 22 22" fill="none" xmlns="http://www.w3.org/2000/svg">
<path fill-rule="evenodd" clip-rule="evenodd" d="M13.594 1.89697C12.8703 1.28018 11.9505 0.941406 10.9995 0.941406C10.0486 0.941406 9.12879 1.28018 8.40503 1.89697L8.02903 2.21697C7.70882 2.49013 7.31058 2.65531 6.89103 2.68897L6.39803 2.72897C5.45 2.80442 4.55987 3.21517 3.8873 3.88756C3.21473 4.55994 2.80373 5.44996 2.72803 6.39797L2.68903 6.89097C2.65565 7.31041 2.49083 7.70863 2.21803 8.02897L1.89703 8.40497C1.27998 9.1288 0.94104 10.0488 0.94104 11C0.94104 11.9511 1.27998 12.8711 1.89703 13.595L2.21703 13.971C2.49019 14.2912 2.65537 14.6894 2.68903 15.109L2.72903 15.602C2.80448 16.55 3.21523 17.4401 3.88762 18.1127C4.56 18.7853 5.45002 19.1963 6.39803 19.272L6.89103 19.311C7.31047 19.3444 7.70869 19.5092 8.02903 19.782L8.40503 20.102C9.12886 20.719 10.0489 21.058 11 21.058C11.9512 21.058 12.8712 20.719 13.595 20.102L13.971 19.782C14.2914 19.5092 14.6896 19.3444 15.109 19.311L15.602 19.271C16.5501 19.1955 17.4402 18.7848 18.1128 18.1124C18.7853 17.44 19.1963 16.55 19.272 15.602L19.31 15.109C19.3437 14.6894 19.5089 14.2912 19.782 13.971L20.102 13.594C20.7188 12.8702 21.0576 11.9504 21.0576 10.9995C21.0576 10.0485 20.7188 9.12873 20.102 8.40497L19.782 8.02897C19.5089 7.70876 19.3437 7.31052 19.31 6.89097L19.271 6.39797C19.1956 5.44994 18.7848 4.55981 18.1125 3.88724C17.4401 3.21467 16.55 2.80367 15.602 2.72797L15.109 2.68897C14.6896 2.65559 14.2914 2.49077 13.971 2.21797L13.594 1.89697ZM9.70303 3.41997C10.0649 3.11171 10.5247 2.9424 11 2.9424C11.4754 2.9424 11.9352 3.11171 12.297 3.41997L12.674 3.74097C13.3146 4.28693 14.1111 4.61692 14.95 4.68397L15.443 4.72397C15.9168 4.76191 16.3616 4.96731 16.6976 5.30338C17.0337 5.63945 17.2391 6.08422 17.277 6.55797L17.317 7.05097C17.3841 7.88996 17.7141 8.68641 18.26 9.32697L18.58 9.70397C18.8883 10.0658 19.0576 10.5256 19.0576 11.001C19.0576 11.4763 18.8883 11.9361 18.58 12.298L18.26 12.675C17.7141 13.3155 17.3841 14.112 17.317 14.951L17.277 15.444C17.2391 15.9177 17.0337 16.3625 16.6976 16.6986C16.3616 17.0346 15.9168 17.24 15.443 17.278L14.95 17.318C14.1111 17.385 13.3146 17.715 12.674 18.261L12.297 18.581C11.9352 18.8892 11.4754 19.0585 11 19.0585C10.5247 19.0585 10.0649 18.8892 9.70303 18.581L9.32603 18.261C8.68547 17.715 7.88902 17.385 7.05003 17.318L6.55703 17.278C6.0831 17.2403 5.63809 17.035 5.30182 16.6989C4.96554 16.3628 4.76 15.9179 4.72203 15.444L4.68203 14.951C4.61526 14.1121 4.28563 13.3157 3.74003 12.675L3.42003 12.298C3.11177 11.9361 2.94246 11.4763 2.94246 11.001C2.94246 10.5256 3.11177 10.0658 3.42003 9.70397L3.74003 9.32697C4.28599 8.68641 4.61598 7.88996 4.68303 7.05097L4.72303 6.55797C4.76074 6.08404 4.96604 5.63903 5.30214 5.30276C5.63823 4.96649 6.08312 4.76094 6.55703 4.72297L7.05003 4.68397C7.88902 4.61692 8.68547 4.28693 9.32603 3.74097L9.70303 3.41997Z" fill="black"/>
</svg>
