<svg width="512" height="512" viewBox="0 0 512 512" fill="none" xmlns="http://www.w3.org/2000/svg">
<path d="M320 320C329.74 300.62 336 279.16 336 256C336 232.52 330 211.58 320 192M368 368C387.48 334.08 400 303.94 400 256C400 208.06 388 178.26 368 144M416 416C446 370 464 324.57 464 256C464 187.43 446 143 416 96M126 192H56C53.8783 192 51.8434 192.843 50.3431 194.343C48.8429 195.843 48 197.878 48 200V312C48 314.122 48.8429 316.157 50.3431 317.657C51.8434 319.157 53.8783 320 56 320H125.65C129.338 319.971 132.922 321.222 135.79 323.54L227.26 398.43C228.451 399.306 229.861 399.835 231.334 399.958C232.807 400.081 234.285 399.793 235.605 399.127C236.924 398.461 238.033 397.443 238.809 396.185C239.585 394.927 239.997 393.478 240 392V120C239.997 118.522 239.585 117.073 238.809 115.815C238.033 114.557 236.924 113.539 235.605 112.873C234.285 112.207 232.807 111.919 231.334 112.042C229.861 112.165 228.451 112.694 227.26 113.57L135.79 188.46C133.054 190.771 129.581 192.027 126 192Z" stroke="white" stroke-width="32" stroke-linecap="round" stroke-linejoin="round"/>
</svg>
