<svg width="138" height="123" viewBox="0 0 138 123" fill="none" xmlns="http://www.w3.org/2000/svg">
<path d="M138 61.5C138 95.4655 107.108 123 69 123C30.8924 123 0 95.4655 0 61.5C0 27.5345 30.8924 0 69 0C107.108 0 138 27.5345 138 61.5Z" fill="#F5F5F5"/>
<path d="M75 73.4H65L61 33H79L75 73.4Z" fill="#FF0B55" fill-opacity="0.3"/>
<path d="M69.9998 93C74.2524 93 77.6998 89.5974 77.6998 85.4001C77.6998 81.2027 74.2524 77.8 69.9998 77.8C65.7472 77.8 62.2998 81.2027 62.2998 85.4001C62.2998 89.5974 65.7472 93 69.9998 93Z" fill="#FF0B55" fill-opacity="0.3"/>
<path d="M70.4444 67.0333H61.5556L58 30H74L70.4444 67.0333Z" fill="#FF0B55"/>
<path d="M66.0002 85C69.7803 85 72.8447 81.8809 72.8447 78.0333C72.8447 74.1857 69.7803 71.0667 66.0002 71.0667C62.2201 71.0667 59.1558 74.1857 59.1558 78.0333C59.1558 81.8809 62.2201 85 66.0002 85Z" fill="#FF0B55"/>
</svg>
